<?xml version="1.0" encoding="utf-8"?>
<!-- Generator: Adobe Illustrator 27.5.0, SVG Export Plug-In . SVG Version: 6.00 Build 0)  -->
<svg version="1.1" xmlns="http://www.w3.org/2000/svg" xmlns:xlink="http://www.w3.org/1999/xlink" x="0px" y="0px"
	 viewBox="0 0 500 500" style="enable-background:new 0 0 500 500;" xml:space="preserve">
<g id="BACKGROUND">
</g>
<g id="OBJECTS">
	<g>
		<path style="fill:#DEEEFF;" d="M397.659,176.51c-15.97-25.328-46.255-40.038-75.962-43.786
			c-47.279-5.965-95.265-6.316-142.626-1.043c-11.288,1.257-22.674,2.866-33.218,7.09c-10.1,4.046-19.122,10.371-28.97,14.998
			c-9.848,4.627-22.278,5.485-33.12,6.39c-14.347,1.198-26.814,13.986-27.646,28.358c-0.832,14.372,10.076,28.514,24.189,31.359
			c5.15,1.038,11.696,1.541,13.533,6.463c1.318,3.533-0.866,7.514-3.817,9.862c-2.951,2.348-6.603,3.623-9.785,5.648
			c-8.393,5.342-12.784,15.926-11.634,25.808c1.15,9.882,7.384,18.818,15.724,24.241c8.341,5.423,18.587,7.511,28.518,6.908
			l259.115-1.315c14.613-6.853,25.511-20.159,32.03-34.925C416.081,235.173,413.629,201.838,397.659,176.51z"/>
		<g>
			<circle style="fill:#3E49E3;" cx="251.049" cy="172.168" r="1"/>
			<circle style="fill:#FF866A;" cx="240.339" cy="114.899" r="1"/>
			<circle style="fill:#FFB800;" cx="338.357" cy="101.269" r="1"/>
			<circle style="fill:#3E49E3;" cx="206.049" cy="76.487" r="1"/>
			<circle style="fill:#FFB800;" cx="461.992" cy="272.987" r="1"/>
			<circle style="fill:#3E49E3;" cx="28.118" cy="221.704" r="1"/>
			<polygon style="fill:#FF866A;" points="239.339,213.873 235.023,221.348 243.654,221.348 			"/>
			<polygon style="fill:#3E49E3;" points="54.823,316.001 50.507,323.476 59.138,323.476 			"/>
			<polygon style="fill:#FFB800;" points="88.89,273.272 93.206,265.798 84.575,265.798 			"/>
			<polygon style="fill:#FF866A;" points="410.682,139.081 414.998,131.606 406.367,131.606 			"/>
			<polygon style="fill:#3E49E3;" points="219.269,102.368 214.953,109.843 223.584,109.843 			"/>
			<g>
				
					<line style="fill:none;stroke:#060305;stroke-linecap:round;stroke-linejoin:round;stroke-miterlimit:10;" x1="277.032" y1="192.152" x2="283.517" y2="185.666"/>
				
					<line style="fill:none;stroke:#060305;stroke-linecap:round;stroke-linejoin:round;stroke-miterlimit:10;" x1="277.032" y1="185.666" x2="283.517" y2="192.152"/>
			</g>
			<g>
				
					<line style="fill:none;stroke:#060305;stroke-linecap:round;stroke-linejoin:round;stroke-miterlimit:10;" x1="363.132" y1="122.744" x2="369.617" y2="116.259"/>
				
					<line style="fill:none;stroke:#060305;stroke-linecap:round;stroke-linejoin:round;stroke-miterlimit:10;" x1="363.132" y1="116.259" x2="369.617" y2="122.744"/>
			</g>
			<g>
				
					<line style="fill:none;stroke:#060305;stroke-linecap:round;stroke-linejoin:round;stroke-miterlimit:10;" x1="446.331" y1="247.318" x2="452.816" y2="240.833"/>
				
					<line style="fill:none;stroke:#060305;stroke-linecap:round;stroke-linejoin:round;stroke-miterlimit:10;" x1="446.331" y1="240.833" x2="452.816" y2="247.318"/>
			</g>
			<g>
				
					<line style="fill:none;stroke:#060305;stroke-linecap:round;stroke-linejoin:round;stroke-miterlimit:10;" x1="47.993" y1="234.544" x2="54.478" y2="228.059"/>
				
					<line style="fill:none;stroke:#060305;stroke-linecap:round;stroke-linejoin:round;stroke-miterlimit:10;" x1="47.993" y1="228.059" x2="54.478" y2="234.544"/>
			</g>
		</g>
	</g>
	<g>
		<path style="fill:#9D3D39;" d="M233.946,166.726c-4.254-8.56-16.561-30.011-16.561-30.011l-11.336,18.312l4.954,11.229
			L233.946,166.726z"/>
		<g>
			<path style="fill:#9D3D39;" d="M66.717,142.536l-9.509-0.751l-16.187-3.308c-0.023-0.63,0.317-1.723,1.744-1.657
				c1.427,0.066,9.168,0,9.168,0l-16.141-5.643c0.336-0.871,0.958-1.659,2.366-1.54s8.533,0.969,8.533,0.969L34.339,124.5
				c0.471-0.842,1.471-1.746,3.187-1.218c1.716,0.528,9.424,2.132,9.424,2.132l4.067,0.038c-4.322-1.713-12.766-6.051-12.766-6.051
				c0.501-0.647,0.852-1.177,3.088-0.866c2.235,0.311,11.113,1.876,11.113,1.876c3.59-0.334,7.308-0.78,10.898-1.114
				c-1.854-1.49-3.708-2.979-5.562-4.469c-0.471-0.378-0.958-0.778-1.199-1.332c-0.241-0.553-0.111-1.449,0.41-1.754
				c5.191,1.047,10.401,1.999,15.571,3.141c5.532,1.222,10.79,5.448,11.161,12.07l13.1,22.74l11.158-12.98l15.016,21.094
				c0,0-6.328,8.19-13.468,16.097c-7.14,7.907-21.534,9.936-29.723-6.151C71.625,151.667,66.717,142.536,66.717,142.536z"/>
			<path style="fill:none;stroke:#060305;stroke-width:0.8;stroke-linecap:round;stroke-linejoin:round;stroke-miterlimit:10;" d="
				M64.424,120.858c-1.116,2.702,0.126,6.155,2.708,7.526"/>
			<path style="fill:none;stroke:#060305;stroke-width:0.8;stroke-linecap:round;stroke-linejoin:round;stroke-miterlimit:10;" d="
				M59.284,124.762c0.506,3.474,1.012,6.948,1.518,10.422"/>
			<path style="fill:none;stroke:#060305;stroke-width:0.8;stroke-linecap:round;stroke-linejoin:round;stroke-miterlimit:10;" d="
				M51.036,136.837c1.06,0.109,2.119,0.218,3.179,0.327"/>
			<path style="fill:none;stroke:#060305;stroke-width:0.8;stroke-linecap:round;stroke-linejoin:round;stroke-miterlimit:10;" d="
				M45.372,130.185c3.234,0.593,6.469,1.186,9.703,1.779"/>
			<path style="fill:none;stroke:#060305;stroke-width:0.8;stroke-linecap:round;stroke-linejoin:round;stroke-miterlimit:10;" d="
				M48.937,125.031c1.881,0.248,3.761,0.497,5.642,0.745"/>
			<path style="fill:none;stroke:#060305;stroke-width:0.8;stroke-linecap:round;stroke-linejoin:round;stroke-miterlimit:10;" d="
				M96.513,149.319c0.91,1.548,1.819,3.096,2.729,4.644"/>
		</g>
		<g>
			<path style="fill:#FFB800;" d="M224.963,136.096c-5.222-2.624-10.443-5.248-15.665-7.872c-7.022-3.529-14.492-5.559-22.178-7.194
				c-7.584-1.613-14.934-3.21-22.518-4.823c-1.107,2.272-3.685,3.737-6.204,3.526c-2.519-0.211-4.829-2.03-5.543-4.455
				c-8.678,1.827-17.68,3.443-26.229,5.802c-5.483,1.513-10.614,3.83-14.655,7.834c-4.925,4.879-9.849,9.758-14.774,14.637
				c-0.227,1.781,0.711,3.557,2.094,4.704c1.382,1.147,3.362,1.528,5.071,0.975c-0.488,1.582,0.12,3.556,1.352,4.661
				c1.232,1.106,3.12,1.415,4.641,0.76c-0.287,1.966,0.618,4.393,2.209,5.583c1.591,1.19,3.841,1.428,5.646,0.598
				c-0.622,1.551-0.125,3.167,0.96,4.439c1.085,1.271,2.898,1.873,4.528,1.502c2.507,8.401,4.878,16.748,7.385,25.148l66.454,3.426
				c1.303-12.952,2.704-26.139,4.007-39.092c1.586,0.238,3.263-0.221,4.507-1.232c1.244-1.011,2.447-2.782,2.537-4.383
				c1.335,0.494,2.91,0.278,4.064-0.556c1.153-0.834,2.155-2.419,2.104-3.841c1.636,0.177,3.34-0.512,4.394-1.775
				c1.053-1.264,1.719-2.951,1.251-4.528C222.567,139.762,224.491,138.22,224.963,136.096z"/>
			<path style="fill:none;stroke:#060305;stroke-width:0.8;stroke-linecap:round;stroke-linejoin:round;stroke-miterlimit:10;" d="
				M123.672,166.577c7.414-13.871,9.537-30.488,5.849-45.778"/>
			<path style="fill:none;stroke:#060305;stroke-width:0.8;stroke-linecap:round;stroke-linejoin:round;stroke-miterlimit:10;" d="
				M148.527,117.142c0.497,3.267,2.565,6.258,5.446,7.876c2.881,1.618,6.512,1.827,9.56,0.551c3.048-1.276,5.446-4.01,6.315-7.198"
				/>
			<path style="fill:none;stroke:#060305;stroke-width:0.8;stroke-linecap:round;stroke-linejoin:round;stroke-miterlimit:10;" d="
				M190.878,122.024c1.456,5.319,2.912,10.639,4.368,15.959"/>
			<g>
				<path style="fill:none;stroke:#FFFFFF;stroke-width:0.8;stroke-linecap:round;stroke-linejoin:round;stroke-miterlimit:10;" d="
					M102.953,142.678c0.938-0.246,1.877-0.492,2.815-0.737"/>
				<path style="fill:none;stroke:#FFFFFF;stroke-width:0.8;stroke-linecap:round;stroke-linejoin:round;stroke-miterlimit:10;" d="
					M111.045,134.813c0.294,0.706,0.588,1.412,0.882,2.118"/>
				<path style="fill:none;stroke:#FFFFFF;stroke-width:0.8;stroke-linecap:round;stroke-linejoin:round;stroke-miterlimit:10;" d="
					M112.1,144.912c0.706,0.055,1.412,0.111,2.118,0.166"/>
				<path style="fill:none;stroke:#FFFFFF;stroke-width:0.8;stroke-linecap:round;stroke-linejoin:round;stroke-miterlimit:10;" d="
					M122.515,140.46c0.765-0.235,1.529-0.471,2.294-0.706"/>
				<path style="fill:none;stroke:#FFFFFF;stroke-width:0.8;stroke-linecap:round;stroke-linejoin:round;stroke-miterlimit:10;" d="
					M122.868,126.872c0.059,1.059,0.118,2.118,0.177,3.176"/>
				<path style="fill:none;stroke:#FFFFFF;stroke-width:0.8;stroke-linecap:round;stroke-linejoin:round;stroke-miterlimit:10;" d="
					M123.574,150.519c0.647,0,1.294,0,1.941,0"/>
				<path style="fill:none;stroke:#FFFFFF;stroke-width:0.8;stroke-linecap:round;stroke-linejoin:round;stroke-miterlimit:10;" d="
					M118.103,154.93c0,0.529,0,1.059,0,1.588"/>
				<path style="fill:none;stroke:#FFFFFF;stroke-width:0.8;stroke-linecap:round;stroke-linejoin:round;stroke-miterlimit:10;" d="
					M134.704,123.463c0.763-0.08,1.525-0.159,2.288-0.239"/>
				<path style="fill:none;stroke:#FFFFFF;stroke-width:0.8;stroke-linecap:round;stroke-linejoin:round;stroke-miterlimit:10;" d="
					M136.069,128.819c0.174,1,0.349,2.001,0.523,3.001"/>
				<path style="fill:none;stroke:#FFFFFF;stroke-width:0.8;stroke-linecap:round;stroke-linejoin:round;stroke-miterlimit:10;" d="
					M145.103,127.225c0.706-0.059,1.412-0.118,2.118-0.177"/>
				<path style="fill:none;stroke:#FFFFFF;stroke-width:0.8;stroke-linecap:round;stroke-linejoin:round;stroke-miterlimit:10;" d="
					M144.221,136.048c0.118,0.765,0.235,1.529,0.353,2.294"/>
				<path style="fill:none;stroke:#FFFFFF;stroke-width:0.8;stroke-linecap:round;stroke-linejoin:round;stroke-miterlimit:10;" d="
					M136.633,145.754c0.471,0.471,0.941,0.941,1.412,1.412"/>
				<path style="fill:none;stroke:#FFFFFF;stroke-width:0.8;stroke-linecap:round;stroke-linejoin:round;stroke-miterlimit:10;" d="
					M149.515,148.577c0.706-0.235,1.412-0.47,2.118-0.706"/>
				<path style="fill:none;stroke:#FFFFFF;stroke-width:0.8;stroke-linecap:round;stroke-linejoin:round;stroke-miterlimit:10;" d="
					M156.19,131.815c0.061,0.706,0.122,1.411,0.183,2.117"/>
				<path style="fill:none;stroke:#FFFFFF;stroke-width:0.8;stroke-linecap:round;stroke-linejoin:round;stroke-miterlimit:10;" d="
					M135.574,157.048c0.529,0.588,1.059,1.176,1.588,1.765"/>
				<path style="fill:none;stroke:#FFFFFF;stroke-width:0.8;stroke-linecap:round;stroke-linejoin:round;stroke-miterlimit:10;" d="
					M145.986,160.577c0.706-0.118,1.412-0.235,2.118-0.353"/>
				<path style="fill:none;stroke:#FFFFFF;stroke-width:0.8;stroke-linecap:round;stroke-linejoin:round;stroke-miterlimit:10;" d="
					M138.574,169.401c0.059,0.765,0.118,1.529,0.176,2.294"/>
				<path style="fill:none;stroke:#FFFFFF;stroke-width:0.8;stroke-linecap:round;stroke-linejoin:round;stroke-miterlimit:10;" d="
					M131.194,166.613c-0.591,0.526-1.182,1.052-1.774,1.578"/>
				<path style="fill:none;stroke:#FFFFFF;stroke-width:0.8;stroke-linecap:round;stroke-linejoin:round;stroke-miterlimit:10;" d="
					M134.691,181.225c0.118,0.647,0.235,1.294,0.353,1.941"/>
				<path style="fill:none;stroke:#FFFFFF;stroke-width:0.8;stroke-linecap:round;stroke-linejoin:round;stroke-miterlimit:10;" d="
					M147.739,179.412c0.764-0.179,1.528-0.357,2.292-0.536"/>
				<path style="fill:none;stroke:#FFFFFF;stroke-width:0.8;stroke-linecap:round;stroke-linejoin:round;stroke-miterlimit:10;" d="
					M151.42,166.071c0.294,0.471,0.588,0.942,0.881,1.412"/>
				<path style="fill:none;stroke:#FFFFFF;stroke-width:0.8;stroke-linecap:round;stroke-linejoin:round;stroke-miterlimit:10;" d="
					M166.693,135.45c0.758-0.424,1.516-0.847,2.274-1.271"/>
				<path style="fill:none;stroke:#FFFFFF;stroke-width:0.8;stroke-linecap:round;stroke-linejoin:round;stroke-miterlimit:10;" d="
					M173.515,122.283c0.294,0.765,0.588,1.529,0.882,2.294"/>
				<path style="fill:none;stroke:#FFFFFF;stroke-width:0.8;stroke-linecap:round;stroke-linejoin:round;stroke-miterlimit:10;" d="
					M182.868,125.283c0.824,0,1.647,0,2.471,0"/>
				<path style="fill:none;stroke:#FFFFFF;stroke-width:0.8;stroke-linecap:round;stroke-linejoin:round;stroke-miterlimit:10;" d="
					M179.162,132.166c0,0.529,0,1.059,0,1.588"/>
				<path style="fill:none;stroke:#FFFFFF;stroke-width:0.8;stroke-linecap:round;stroke-linejoin:round;stroke-miterlimit:10;" d="
					M198.574,127.048c0.706,0.235,1.412,0.471,2.118,0.706"/>
				<path style="fill:none;stroke:#FFFFFF;stroke-width:0.8;stroke-linecap:round;stroke-linejoin:round;stroke-miterlimit:10;" d="
					M207.833,130.468c0.416,0.585,0.832,1.17,1.249,1.755"/>
				<path style="fill:none;stroke:#FFFFFF;stroke-width:0.8;stroke-linecap:round;stroke-linejoin:round;stroke-miterlimit:10;" d="
					M199.615,133.033c-0.294,0.353-0.589,0.706-0.883,1.058"/>
				<path style="fill:none;stroke:#FFFFFF;stroke-width:0.8;stroke-linecap:round;stroke-linejoin:round;stroke-miterlimit:10;" d="
					M188.162,133.401c0.118,0.529,0.235,1.059,0.353,1.588"/>
				<path style="fill:none;stroke:#FFFFFF;stroke-width:0.8;stroke-linecap:round;stroke-linejoin:round;stroke-miterlimit:10;" d="
					M217.946,137.104c-0.055,0.706-0.11,1.412-0.165,2.118"/>
			</g>
		</g>
		<g>
			<path style="fill:#9D3D39;" d="M118.799,398.474c6.399-21.286,13.07-42.81,19.469-64.095c-9.891-2.335-20.203-5.194-29.616-9.024
				c-12.492,26.199-20.538,54.511-23.692,83.364c6.915,5,13.906,9.473,20.821,14.473l14.889,0.395
				C116.315,415.841,116.241,406.983,118.799,398.474z"/>
			<g>
				<path style="fill:#4D57FF;" d="M124.825,426.728c-3.251-2.935-5.477-6.841-6.114-11.174c-2.232-1.444-4.947-2.129-7.597-1.917
					c-2.65,0.212-5.221,1.32-7.195,3.102l-19.274-13.783l-4.071,14.725l6.531,4.103l2.795-3.559l0.302,5.504l13.718,8.619h25.637
					C128.997,429.918,126.676,428.4,124.825,426.728z"/>
				<path style="fill:none;stroke:#060305;stroke-width:0.8;stroke-linecap:round;stroke-linejoin:round;stroke-miterlimit:10;" d="
					M82.673,413.029c8.553,4.474,16.301,10.484,22.761,17.657"/>
			</g>
		</g>
		<g>
			<path style="fill:#9D3D39;" d="M186.565,404.812c2.642-20.331,5.15-40.37,7.792-60.7c-11.013-1.171-22.346-2.267-33.359-3.438
				c-4.292,27.604-5.904,55.624-4.806,83.538l34.007,4.634C184.797,422.181,185.46,413.318,186.565,404.812z"/>
			<g>
				<path style="fill:#4D57FF;" d="M161.813,428.373l2.243,3.959l36.636-0.067c-0.573-3.519-6.117-1.834-10.07-11.695
					c-10.452-10.435-20.452-0.244-20.452-0.244l-15.361-2.417v14.441l6.153-0.011L161.813,428.373z"/>
				<path style="fill:none;stroke:#060305;stroke-width:0.8;stroke-linecap:round;stroke-linejoin:round;stroke-miterlimit:10;" d="
					M155.334,427.49c8.038-0.455,16.168,0.766,23.718,3.562"/>
			</g>
		</g>
		<g>
			<path style="fill:#E73A3C;" d="M129.85,195.35l-0.394-7.463l65.831-1.716v5.672l0.904,1.313l15.598,180.68l-62.324,0.664
				l2.176-69.746l-13.97,67.019l-63.168-14.509c8.818-16.951,14.47-34.047,23.288-50.999c2.859-5.496,5.732-11.026,7.609-16.93
				c4.234-13.314,3.168-27.655,4.739-41.537C112.239,229.272,118.928,210.46,129.85,195.35z"/>
			<path style="fill:none;stroke:#060305;stroke-width:0.8;stroke-linecap:round;stroke-linejoin:round;stroke-miterlimit:10;" d="
				M129.751,195.378c11.059-0.049,22.118-0.098,33.177-0.147"/>
			<path style="fill:none;stroke:#060305;stroke-width:0.8;stroke-linecap:round;stroke-linejoin:round;stroke-miterlimit:10;" d="
				M151.277,307.267c4.652-22.365,8.4-44.907,12.146-67.442"/>
			<path style="fill:none;stroke:#060305;stroke-width:0.8;stroke-linecap:round;stroke-linejoin:round;stroke-miterlimit:10;" d="
				M79.629,348.491c19.585,4.615,39.171,9.23,58.756,13.846"/>
			<path style="fill:none;stroke:#060305;stroke-width:0.8;stroke-linecap:round;stroke-linejoin:round;stroke-miterlimit:10;" d="
				M150.395,365.616c19.647,0.105,39.294,0.21,58.941,0.315"/>
			<path style="fill:none;stroke:#060305;stroke-width:0.8;stroke-linecap:round;stroke-linejoin:round;stroke-miterlimit:10;" d="
				M117.925,219.87c8,0.081,16.001,0.163,24.001,0.244c-2.014,8.703-4.431,17.681-6.445,26.383
				c-1.01,4.365-5.906,6.808-10.081,8.432c-4.175,1.623-8.941,1.676-13.151,0.146"/>
			<path style="fill:none;stroke:#060305;stroke-width:0.8;stroke-linecap:round;stroke-linejoin:round;stroke-miterlimit:10;" d="
				M200.94,255.922c-3.233-1.849-5.447-5.334-5.864-9.034c-1.006-8.934-2.011-17.868-3.017-26.802
				c2.001,0.228,4.335,0.111,6.336,0.339"/>
		</g>
		<g>
			<g>
				<path style="fill:none;stroke:#060305;stroke-width:0.8;stroke-linecap:round;stroke-linejoin:round;stroke-miterlimit:10;" d="
					M136.196,102.777c5.456-2.229,10.204-5.974,13.496-10.646"/>
				<path style="fill:#060305;" d="M176.352,93.432c-2.669-4.875-8.038-8.152-13.594-8.298c-5.556-0.146-10.909,2.996-14.092,7.552
					c-2.498,3.575-5.559,6.755-9.037,9.387c-1.287,0.974-1.957,2.556-1.454,4.089c0.503,1.533,2.155,2.6,3.76,2.428
					c-0.392,1.287-0.054,2.73,1.04,3.515c1.094,0.785,2.689,0.784,3.782-0.001c0.279,1.584,1.979,2.503,3.569,2.739
					c1.591,0.236,3.206-0.295,4.619-1.063l18.66-12.041c1.859-0.181,3.54-1.582,4.053-3.379
					C178.171,96.563,177.249,95.07,176.352,93.432z"/>
			</g>
			<g>
				<path style="fill:#9D3D39;" d="M166.071,118.06c0.174-0.795,0.212-1.589,0.386-2.384c2.551-0.033,5.063-1.246,6.676-3.223
					c1.613-1.977,2.08-4.651,1.947-7.199c-0.115-2.204-0.103-4.305-0.218-6.509c-0.607,0.666-1.532,1.028-2.43,0.952
					c-0.898-0.076-1.854-0.38-2.34-1.139c-0.388,0.642-1.109,1.07-1.859,1.101c-0.749,0.031-1.617-0.426-2.057-1.034
					c-0.388,0.607-1.068,1.016-1.786,1.075c-0.717,0.059-1.478-0.324-1.958-0.859c-0.712,0.847-1.777,1.387-2.88,1.46
					c-1.104,0.073-2.231-0.024-3.048-0.769c-0.419,0.553-0.795,0.968-1.214,1.521c-1.661-1.207-4.104-1.2-5.758,0.017
					c-1.654,1.217-2.387,3.547-1.729,5.492c0.658,1.945,2.657,3.35,4.71,3.312c-0.221,2.028-0.602,3.937-0.823,5.965
					c-0.335,3.081,3.237,5.733,6.302,6.189C161.057,122.484,165.409,121.088,166.071,118.06z"/>
				<path style="fill:#FFFFFF;" d="M164.398,108.705c-0.135,0.773,0.51,1.589,1.293,1.637c0.783,0.048,1.522-0.683,1.483-1.467
					L164.398,108.705z"/>
				<circle style="fill:#060305;" cx="173.077" cy="104.898" r="0.8"/>
				<circle style="fill:#060305;" cx="164.527" cy="105.129" r="0.8"/>
				<path style="fill:none;stroke:#060305;stroke-width:0.8;stroke-linecap:round;stroke-linejoin:round;stroke-miterlimit:10;" d="
					M163.118,102.085c0.323-0.668,0.966-1.171,1.692-1.324c0.726-0.153,1.517,0.048,2.082,0.528"/>
				<path style="fill:none;stroke:#060305;stroke-width:0.8;stroke-linecap:round;stroke-linejoin:round;stroke-miterlimit:10;" d="
					M173.075,101.112c0.618-0.088,1.235-0.176,1.853-0.264"/>
				<path style="fill:none;stroke:#060305;stroke-width:0.8;stroke-linecap:round;stroke-linejoin:round;stroke-miterlimit:10;" d="
					M169.367,104.636c0.208,1.029,0.415,2.058,0.623,3.087c-0.353-0.117-0.797,0.024-1.15-0.093"/>
				<path style="fill:none;stroke:#060305;stroke-width:0.8;stroke-linecap:round;stroke-linejoin:round;stroke-miterlimit:10;" d="
					M150.936,103.03c0.823,0.384,1.646,0.768,2.469,1.151"/>
				<path style="fill:none;stroke:#060305;stroke-width:0.8;stroke-linecap:round;stroke-linejoin:round;stroke-miterlimit:10;" d="
					M151.988,109.949c0.528-0.072,1.055-0.144,1.583-0.215"/>
				<path style="fill:none;stroke:#060305;stroke-width:0.8;stroke-linecap:round;stroke-linejoin:round;stroke-miterlimit:10;" d="
					M159.323,113.876c2.403,1.33,5.191,1.953,7.932,1.771"/>
			</g>
		</g>
		<g>
			<path style="fill:#4D57FF;" d="M216.407,141.025l-4.253,61.189c-0.203,2.917-2.496,5.254-5.408,5.512l-46.842,4.152
				c-0.721,0.064-1.448-0.031-2.128-0.279l-3.963-1.442c-0.902-0.328-1.477-1.214-1.411-2.171l4.605-66.253
				c0.058-0.839,0.717-1.51,1.555-1.585l46.925-4.159c2.292-0.203,4.603,0.006,6.821,0.619l1.208,0.333
				C215.328,137.442,216.537,139.15,216.407,141.025z"/>
			<g>
				<defs>
					<polygon id="SVGID_1_" points="212.492,144.839 208.421,203.409 162.731,207.406 166.802,148.836 					"/>
				</defs>
				<use xlink:href="#SVGID_1_"  style="overflow:visible;fill:#4D57FF;"/>
				<clipPath id="SVGID_00000033355687532204050600000013027917484667907495_">
					<use xlink:href="#SVGID_1_"  style="overflow:visible;"/>
				</clipPath>
				<g style="clip-path:url(#SVGID_00000033355687532204050600000013027917484667907495_);">
					<polygon style="fill:#FFFFFF;" points="162.408,214.026 220.426,141.165 212.814,138.219 154.797,211.079 					"/>
					<polygon style="fill:#E73A3C;" points="188.557,178.486 218.781,140.529 216.62,139.692 186.396,177.65 					"/>
					<polygon style="fill:#E73A3C;" points="158.603,212.553 189.431,173.837 187.27,173.001 156.441,211.716 					"/>
					<polygon style="fill:#FFFFFF;" points="167.401,142.192 215.938,205.73 207.822,210.053 159.285,146.515 					"/>
					<polygon style="fill:#E73A3C;" points="190.09,175.122 214.185,206.664 211.88,207.891 187.785,176.35 					"/>
					<polygon style="fill:#E73A3C;" points="163.343,144.354 187.785,176.35 185.48,177.577 161.038,145.581 					"/>
					<polygon style="fill:#E73A3C;" points="165.005,174.694 164.529,181.548 210.218,177.551 210.695,170.697 					"/>
					<polygon style="fill:#FFFFFF;" points="177.961,206.074 193.191,204.741 197.262,146.171 182.032,147.504 					"/>
					<polygon style="fill:#FFFFFF;" points="165.174,172.264 164.36,183.978 210.049,179.981 210.863,168.267 					"/>
					<polygon style="fill:#E73A3C;" points="181.007,205.807 190.145,205.008 194.216,146.438 185.078,147.237 					"/>
					<polygon style="fill:#E73A3C;" points="165.011,174.607 164.523,181.635 210.212,177.638 210.701,170.61 					"/>
				</g>
			</g>
			<path style="fill:#FFFFFF;" d="M154.245,207.818l4.507-65.484l49.293-4.538l4.298,1.062l-48.176,4.747
				c-0.95,0.094-1.694,0.857-1.764,1.809l-4.675,63.569L154.245,207.818z"/>
			<path style="fill:none;stroke:#060305;stroke-width:0.8;stroke-linecap:round;stroke-linejoin:round;stroke-miterlimit:10;" d="
				M164.166,145.27c7.412-0.7,14.825-1.4,22.237-2.099"/>
			<path style="fill:none;stroke:#060305;stroke-width:0.8;stroke-linecap:round;stroke-linejoin:round;stroke-miterlimit:10;" d="
				M160.179,143.981c-0.818,10.241-1.636,20.481-2.454,30.721"/>
		</g>
		<g>
			<path style="fill:#9D3D39;" d="M219.927,158.993c-11.173,0.334-21.903,0.403-33.384,0.84c-4.385-1.275-8.968-1.137-13.227,0.509
				c-5.625,2.174-11.251,4.348-16.876,6.522c-0.14,0.65,0.24,1.463,0.814,1.797c0.574,0.335,1.257,0.415,1.917,0.487
				c2.564,0.282,5.127,0.564,7.691,0.846c-4.656,4.956-9.734,10.006-14.389,14.962c-0.684,0.728-0.618,1.858-0.078,2.698
				c2.533-1.616,4.956-2.947,7.489-4.563c-2.166,2.059-4.332,4.118-6.498,6.176c-0.768,0.73-1.107,1.898-0.49,2.76
				c4.119-1.909,8.374-3.582,12.494-5.491c-2.824,2.095-5.648,4.19-8.471,6.285c-0.81,0.601-1.055,2.014-0.581,2.905
				c4.003-1.798,8.024-3.602,12.027-5.4c-1.135,1.139-2.374,2.451-3.51,3.59c-0.676,0.678-0.627,1.617-0.225,2.486
				c8.349-4.627,16.654-9.128,25.003-13.755c8.395,1.199,16.975,2.322,25.37,3.521c5.537,0.791,11.57-0.082,15.568-3.993
				c3.998-3.911,5.498-10.275,3.375-15.45C231.822,161.551,225.518,158.826,219.927,158.993z"/>
			<path style="fill:none;stroke:#060305;stroke-width:0.8;stroke-linecap:round;stroke-linejoin:round;stroke-miterlimit:10;" d="
				M158.723,183.921c2.398-1.551,4.795-3.102,7.193-4.654"/>
			<path style="fill:none;stroke:#060305;stroke-width:0.8;stroke-linecap:round;stroke-linejoin:round;stroke-miterlimit:10;" d="
				M163.642,187.77c1.943-1.173,3.886-2.347,5.829-3.52"/>
			<path style="fill:none;stroke:#060305;stroke-width:0.8;stroke-linecap:round;stroke-linejoin:round;stroke-miterlimit:10;" d="
				M167.372,191.182c2.113-0.952,4.226-1.903,6.339-2.854"/>
			<path style="fill:none;stroke:#060305;stroke-width:0.8;stroke-linecap:round;stroke-linejoin:round;stroke-miterlimit:10;" d="
				M166.633,170.283c0.471-0.471,0.941-0.941,1.412-1.412"/>
			<path style="fill:none;stroke:#060305;stroke-width:0.8;stroke-linecap:round;stroke-linejoin:round;stroke-miterlimit:10;" d="
				M215.163,158.886c1.412,0.011,2.823,0.023,4.235,0.034"/>
		</g>
	</g>
	<g>
		<g>
			<g>
				<polygon style="fill:#FF866A;" points="340.035,322.044 391.683,322.044 403.53,262.694 351.881,262.694 				"/>
				
					<line style="fill:none;stroke:#060305;stroke-width:0.8;stroke-linecap:round;stroke-linejoin:round;stroke-miterlimit:10;" x1="393.281" y1="280.305" x2="387.906" y2="310.664"/>
			</g>
			<g>
				<path style="fill:#FF866A;" d="M323.868,346.058h52.196c4.944,0,8.951,4.008,8.951,8.951v4.932h-61.148V346.058z"/>
				
					<line style="fill:none;stroke:#060305;stroke-width:0.8;stroke-linecap:round;stroke-linejoin:round;stroke-miterlimit:10;" x1="352.809" y1="356.496" x2="382.156" y2="356.496"/>
			</g>
			<g>
				<polygon style="fill:#060305;" points="322.508,358.431 389.192,358.431 390.155,364.385 322.508,364.385 				"/>
				<polygon style="fill:#060305;" points="407.129,261.385 401.149,261.385 382.015,359.942 387.995,359.942 				"/>
				<polygon style="fill:#060305;" points="399.985,432.35 393.219,432.35 374.201,361.408 384.515,361.408 				"/>
				<polygon style="fill:#060305;" points="345.006,432.35 338.24,432.35 319.222,361.408 329.536,361.408 				"/>
				
					<line style="fill:none;stroke:#FFFFFF;stroke-width:0.8;stroke-linecap:round;stroke-linejoin:round;stroke-miterlimit:10;" x1="375.126" y1="364.859" x2="385.389" y2="364.859"/>
				
					<line style="fill:none;stroke:#FFFFFF;stroke-width:0.8;stroke-linecap:round;stroke-linejoin:round;stroke-miterlimit:10;" x1="382.156" y1="358.431" x2="389.192" y2="358.431"/>
			</g>
		</g>
		<g>
			<g>
				<path style="fill:#97B8FF;" d="M427.323,262.904c-7.853-12.09-17.806-22.732-27.38-33.51
					c-8.176-9.204-19.835-14.482-31.786-17.443c-7.275-1.802-14.664-3.581-21.938-5.383c-1.313,2.311-3.897,3.843-6.554,3.885
					c-2.657,0.043-5.401-1.432-6.788-3.699c-8.219,2.675-16.438,5.351-24.656,8.026c-5.279,1.719-9.804,4.981-13.358,9.246
					c-1.996,2.395-3.621,5.073-5.238,7.739c-4.874,8.039-9.748,16.078-14.622,24.118c-12.381,3.064-24.522,5.321-36.903,8.384
					c0.008,6.588-0.099,12.957-0.091,19.545l139.866,11.39c1.597-10.035,3.552-20.573,5.149-30.608
					c2.048,4.123,4.096,8.246,6.143,12.369c2.309,4.648,4.743,9.454,8.819,12.666c7.2,5.674,18.498,4.568,25.191-1.697
					C429.869,281.667,432.317,270.591,427.323,262.904z"/>
				<g>
					<defs>
						<path id="SVGID_00000168088327050140009480000018338037480382151812_" d="M336.092,241.813
							c-9.957-17.693-35.793,6.009-0.215,21.83C371.76,248.527,346.397,224.32,336.092,241.813z"/>
					</defs>
					<use xlink:href="#SVGID_00000168088327050140009480000018338037480382151812_"  style="overflow:visible;fill:#4D57FF;"/>
					<clipPath id="SVGID_00000124840211151645361400000009226583079266473376_">
						<use xlink:href="#SVGID_00000168088327050140009480000018338037480382151812_"  style="overflow:visible;"/>
					</clipPath>
					<g style="clip-path:url(#SVGID_00000124840211151645361400000009226583079266473376_);">
						
							<rect x="304.985" y="245.422" transform="matrix(-0.852 -0.5235 0.5235 -0.852 492.4312 635.5317)" style="fill:#FFFFFF;" width="62.089" height="5.507"/>
						
							<rect x="332.119" y="255.844" transform="matrix(-0.852 -0.5235 0.5235 -0.852 510.717 657.6022)" style="fill:#E73A3C;" width="32.346" height="1.564"/>
						
							<rect x="307.547" y="239.111" transform="matrix(-0.852 -0.5235 0.5235 -0.852 474.5663 613.9188)" style="fill:#E73A3C;" width="32.992" height="1.564"/>
						
							<rect x="304.985" y="245.422" transform="matrix(0.8622 -0.5066 0.5066 0.8622 -79.4121 204.4158)" style="fill:#FFFFFF;" width="62.089" height="5.507"/>
						
							<rect x="307.536" y="255.986" transform="matrix(0.8622 -0.5066 0.5066 0.8622 -85.568 198.973)" style="fill:#E73A3C;" width="30.822" height="1.564"/>
						
							<rect x="333.288" y="238.912" transform="matrix(0.8622 -0.5066 0.5066 0.8622 -73.3397 209.7775)" style="fill:#E73A3C;" width="31.267" height="1.564"/>
						
							<rect x="333.355" y="234.463" transform="matrix(1 0.0099 -0.0099 1 2.4613 -3.2985)" style="fill:#E73A3C;" width="5.349" height="27.424"/>
						
							<rect x="331.459" y="225.322" transform="matrix(0.0099 -1 1 0.0099 84.5512 581.7394)" style="fill:#FFFFFF;" width="9.141" height="45.706"/>
						
							<rect x="331.459" y="229.045" transform="matrix(1 0.0099 -0.0099 1 2.4652 -3.3036)" style="fill:#FFFFFF;" width="9.141" height="38.26"/>
						
							<rect x="333.287" y="225.322" transform="matrix(0.0098 -1 1 0.0098 84.5584 581.7449)" style="fill:#E73A3C;" width="5.485" height="45.706"/>
						
							<rect x="333.287" y="229.045" transform="matrix(1 0.0099 -0.0099 1 2.4643 -3.3024)" style="fill:#E73A3C;" width="5.485" height="38.26"/>
					</g>
				</g>
				<path style="fill:none;stroke:#060305;stroke-width:0.8;stroke-linecap:round;stroke-linejoin:round;stroke-miterlimit:10;" d="
					M330.155,211.817c2.981,2.898,7.331,4.323,11.449,3.75c4.118-0.573,7.914-3.131,9.992-6.732"/>
				<path style="fill:none;stroke:#060305;stroke-width:0.8;stroke-linecap:round;stroke-linejoin:round;stroke-miterlimit:10;" d="
					M297.587,245.097c0.706,0.882,1.412,1.764,2.119,2.646c7.488-13.219,16.986-25.078,28.401-35.103"/>
				<path style="fill:none;stroke:#060305;stroke-width:0.8;stroke-linecap:round;stroke-linejoin:round;stroke-miterlimit:10;" d="
					M350.324,211.08c11.83,10.836,21.996,23.485,30.033,37.369"/>
				<path style="fill:none;stroke:#060305;stroke-width:0.8;stroke-linecap:round;stroke-linejoin:round;stroke-miterlimit:10;" d="
					M397.165,240.545c8.471,6.197,16.943,12.394,25.414,18.591"/>
				<path style="fill:none;stroke:#060305;stroke-width:0.8;stroke-linecap:round;stroke-linejoin:round;stroke-miterlimit:10;" d="
					M387.718,271.87c5.966,1.675,12.737,0.116,17.37-3.998c4.633-4.114,6.981-10.654,6.023-16.775"/>
				<path style="fill:none;stroke:#060305;stroke-width:0.8;stroke-linecap:round;stroke-linejoin:round;stroke-miterlimit:10;" d="
					M387.906,267.708c0.938,1.531,1.876,3.063,2.814,4.594"/>
				<path style="fill:none;stroke:#060305;stroke-width:0.8;stroke-linecap:round;stroke-linejoin:round;stroke-miterlimit:10;" d="
					M396.711,264.029c1.881,1.825,3.761,3.651,5.642,5.476"/>
				<path style="fill:none;stroke:#060305;stroke-width:0.8;stroke-linecap:round;stroke-linejoin:round;stroke-miterlimit:10;" d="
					M393.868,265.971c1.289,1.886,2.578,3.772,3.867,5.657"/>
				<path style="fill:none;stroke:#060305;stroke-width:0.8;stroke-linecap:round;stroke-linejoin:round;stroke-miterlimit:10;" d="
					M401.132,256.978c2.711,1.698,5.422,3.396,8.133,5.093"/>
				<path style="fill:none;stroke:#060305;stroke-width:0.8;stroke-linecap:round;stroke-linejoin:round;stroke-miterlimit:10;" d="
					M401.67,248.486c3.147,2.552,6.294,5.104,9.441,7.655"/>
				<path style="fill:none;stroke:#060305;stroke-width:0.8;stroke-linecap:round;stroke-linejoin:round;stroke-miterlimit:10;" d="
					M251.331,261.884c4.094,2.618,6.641,7.488,6.457,12.344"/>
				
					<line style="fill:none;stroke:#060305;stroke-width:0.8;stroke-linecap:round;stroke-linejoin:round;stroke-miterlimit:10;" x1="299.705" y1="247.743" x2="294.879" y2="271.987"/>
			</g>
			<g>
				<path style="fill:#FFCAB5;" d="M209.732,287.74c1.316-3.426,2.632-6.852,3.947-10.278l9.611-7.932c0,0,9.166-3.706,16.18-4.491
					c7.014-0.785,12.292,4.951,9.874,11.921c-2.418,6.971-34.557,16.102-34.557,16.102l-4.089-0.062l0.826-4.837
					C211.525,288.162,210.567,288.903,209.732,287.74z"/>
				<path style="fill:none;stroke:#060305;stroke-width:0.8;stroke-linecap:round;stroke-linejoin:round;stroke-miterlimit:10;" d="
					M229.075,271.775c-3.228,2.422-6.455,4.844-9.683,7.266c0.043,0.697,0.729,1.065,1.41,1.218c0.681,0.153,1.39,0.009,2.074-0.135
					c3.358-0.709,6.717-1.417,10.076-2.126"/>
				
					<polyline style="fill:none;stroke:#060305;stroke-width:0.8;stroke-linecap:round;stroke-linejoin:round;stroke-miterlimit:10;" points="
					211.525,288.162 217.456,281.502 219.757,279.763 				"/>
			</g>
			<g>
				<path style="fill:#FFCAB5;" d="M345.827,199.845l-12.324,11.219c2.201,1.817,5.25,2.559,8.04,1.957
					c2.79-0.602,5.262-2.534,6.519-5.096C347.338,205.283,346.551,202.488,345.827,199.845z"/>
				<path style="fill:#FFB800;" d="M347.705,184.807c-1.89-3.377-5.505-5.427-9.367-5.672c-2.697-0.171-5.394-0.342-8.091-0.513
					c-1.683-0.107-3.397-0.211-5.036,0.186c-1.639,0.397-3.223,1.379-3.926,2.912c-0.704,1.533-0.289,3.863,1.194,4.666
					c-1.007,0.547-1.687,1.652-1.72,2.798c-0.033,1.146,0.581,2.289,1.555,2.893c0.974,0.604,2.271,0.648,3.283,0.11
					c-0.285,2.207-0.378,4.479-0.663,6.686c-0.692-0.314-1.463-0.144-2.046,0.344c-0.583,0.487-0.936,1.198-1.172,1.92
					c-1.055,3.227,0.074,6.972,2.52,9.326c2.447,2.354,6.04,3.346,9.408,2.922c3.369-0.424,6.495-2.172,8.892-4.576
					c2.397-2.405,4.1-5.437,5.268-8.625l-0.299-4.303C349.515,192.575,349.595,188.184,347.705,184.807z"/>
				<g>
					<path style="fill:#FFCAB5;" d="M349.923,194.888c-1.368-1.642-3.956-2.106-5.81-1.042l-0.029,7.944
						c1.846,1.077,4.437,0.632,5.817-1C351.282,199.158,351.291,196.529,349.923,194.888z"/>
					
						<path style="fill:none;stroke:#060305;stroke-width:0.8;stroke-linecap:round;stroke-linejoin:round;stroke-miterlimit:10;" d="
						M345.23,197.257c0.978-0.282,1.956-0.565,2.934-0.847"/>
				</g>
				<g>
					<path style="fill:#FFCAB5;" d="M339.663,190.932c-0.87,0.393-1.891,0.44-2.793,0.129c-0.903-0.311-1.724-0.978-2.168-1.823
						c-0.851,1.078-2.273,1.677-3.639,1.532c-1.366-0.145-2.631-1.029-3.236-2.261c-2.33,0.963-3.852,3.204-4.413,5.661
						c-0.561,2.457-0.328,5.018-0.092,7.528l16.761,0.436c0.35-3.141,0.729-6.119,1.079-9.26
						C340.283,192.693,339.469,191.808,339.663,190.932z"/>
					<circle style="fill:#060305;" cx="336.791" cy="199.845" r="0.8"/>
					<circle style="fill:#060305;" cx="326.694" cy="199.485" r="0.8"/>
					
						<path style="fill:none;stroke:#060305;stroke-width:0.8;stroke-linecap:round;stroke-linejoin:round;stroke-miterlimit:10;" d="
						M331.259,198.052c-0.125,1.176-0.249,2.351-0.374,3.527c0.392-0.003,0.65,0.173,1.042,0.17"/>
					
						<path style="fill:none;stroke:#060305;stroke-width:0.8;stroke-linecap:round;stroke-linejoin:round;stroke-miterlimit:10;" d="
						M333.152,204.083c0.23,0.444,0.762,0.709,1.255,0.625c0.493-0.085,0.907-0.512,0.976-1.007"/>
					
						<path style="fill:none;stroke:#060305;stroke-width:0.8;stroke-linecap:round;stroke-linejoin:round;stroke-miterlimit:10;" d="
						M324.511,194.753c0.185-0.927,0.988-1.698,1.922-1.846c0.934-0.148,1.935,0.338,2.398,1.162"/>
					
						<path style="fill:none;stroke:#060305;stroke-width:0.8;stroke-linecap:round;stroke-linejoin:round;stroke-miterlimit:10;" d="
						M334.987,193.443c0.98,0.047,1.96,0.093,2.94,0.14"/>
					
						<path style="fill:none;stroke:#FFB800;stroke-width:0.8;stroke-linecap:round;stroke-linejoin:round;stroke-miterlimit:10;" d="
						M327.484,188.158c0.616,2.21,2.86,3.85,5.153,3.766"/>
				</g>
			</g>
			<g>
				<g>
					<path style="fill:#FFFFFF;" d="M346.31,275.798c16.111-7.121,33.175-13.197,33.175-13.197H320.38
						c-16.482,4.953-26.539,9.321-32.669,12.703c-28.603-0.203-40.955-4.747-72.658,9.581v7.025l169.011,1.507v-8.533
						C371.245,279.211,358.309,276.806,346.31,275.798z"/>
					
						<path style="fill:none;stroke:#060305;stroke-width:0.8;stroke-linecap:round;stroke-linejoin:round;stroke-miterlimit:10;" d="
						M251.222,274.766c9.301-1.003,18.964,1.935,26.132,7.948c5.313-4.836,12.695-7.439,19.842-8.176
						c7.146-0.738,14.392,0.384,21.27,2.461c6.878,2.077,13.431,5.093,19.9,8.219h45.139"/>
					
						<line style="fill:none;stroke:#060305;stroke-width:0.8;stroke-linecap:round;stroke-linejoin:round;stroke-miterlimit:10;" x1="338.365" y1="285.217" x2="338.365" y2="291.746"/>
					
						<path style="fill:none;stroke:#060305;stroke-width:0.8;stroke-linecap:round;stroke-linejoin:round;stroke-miterlimit:10;" d="
						M270.046,286.52c1.578-2.101,4.213-3.364,6.839-3.276c2.626,0.087,5.172,1.522,6.607,3.723"/>
					
						<line style="fill:none;stroke:#060305;stroke-width:0.8;stroke-linecap:round;stroke-linejoin:round;stroke-miterlimit:10;" x1="304.465" y1="274.048" x2="347.292" y2="275.885"/>
					
						<path style="fill:none;stroke:#060305;stroke-width:0.8;stroke-linecap:round;stroke-linejoin:round;stroke-miterlimit:10;" d="
						M222.93,285.834c7.075-2.662,14.209-5.34,21.673-6.533c7.464-1.193,15.376-0.811,22.197,2.447"/>
					
						<path style="fill:none;stroke:#060305;stroke-width:0.8;stroke-linecap:round;stroke-linejoin:round;stroke-miterlimit:10;" d="
						M240.786,283.494c6.818-2.66,14.637-2.655,21.452,0.014"/>
					
						<path style="fill:none;stroke:#060305;stroke-width:0.8;stroke-linecap:round;stroke-linejoin:round;stroke-miterlimit:10;" d="
						M283.262,282.51c6.056-3.057,12.895-4.547,19.674-4.285c10.193,0.393,19.796,4.612,29.114,8.762"/>
					
						<path style="fill:none;stroke:#060305;stroke-width:0.8;stroke-linecap:round;stroke-linejoin:round;stroke-miterlimit:10;" d="
						M291.78,283.154c6.483-1.84,13.515-1.7,19.92,0.397"/>
					
						<path style="fill:none;stroke:#060305;stroke-width:0.8;stroke-linecap:round;stroke-linejoin:round;stroke-miterlimit:10;" d="
						M347.162,288.176c10.706-0.049,21.411-0.098,32.117-0.147"/>
					
						<path style="fill:none;stroke:#060305;stroke-width:0.8;stroke-linecap:round;stroke-linejoin:round;stroke-miterlimit:10;" d="
						M366.573,290.309c2.412,0.061,4.823,0.122,7.235,0.183"/>
				</g>
				<g>
					<path style="fill:#E73A3C;" d="M210.819,291.616l58.658-5.493c0,0,6.846,9.604,14.942,0l54.187,5.623h46.539
						c0.811,0,1.468,0.657,1.468,1.468l0,0c0,0.811-0.657,1.468-1.468,1.468H210.962c-0.849,0-1.536-0.688-1.536-1.536l0,0
						C209.426,292.352,210.029,291.69,210.819,291.616z"/>
					
						<path style="fill:none;stroke:#060305;stroke-width:0.8;stroke-linecap:round;stroke-linejoin:round;stroke-miterlimit:10;" d="
						M339.456,291.816c0.573,0.128,1.054,0.606,1.185,1.178c0.131,0.573-0.094,1.212-0.555,1.576"/>
					
						<path style="fill:none;stroke:#060305;stroke-width:0.8;stroke-linecap:round;stroke-linejoin:round;stroke-miterlimit:10;" d="
						M210.962,294.682L268.028,289c1.948,2.917,5.435,4.738,8.941,4.669c3.506-0.069,6.92-2.024,8.752-5.015l50.7,5.61"/>
				</g>
			</g>
			<g>
				<path style="fill:#060305;" d="M265.043,401.216c3.175,7.412,2.34,16.405-2.146,23.106c-1.746,2.608-6.556,5.197-5.761,8.029
					h59.397l6.447-36.067l-43.157-3.4L265.043,401.216z"/>
				<path style="fill:none;stroke:#FFFFFF;stroke-width:0.8;stroke-linecap:round;stroke-linejoin:round;stroke-miterlimit:10;" d="
					M263.412,431.469c1.344-1.133,2.688-2.266,4.032-3.399c2.849-2.401,5.72-4.826,8.006-7.768
					c4.434-5.708,6.391-13.274,5.282-20.416"/>
				<path style="fill:none;stroke:#FFFFFF;stroke-width:0.8;stroke-linecap:round;stroke-linejoin:round;stroke-miterlimit:10;" d="
					M266.543,431.57c16.698-1.017,33.395-2.034,50.093-3.051"/>
				<path style="fill:none;stroke:#FFFFFF;stroke-width:0.8;stroke-linecap:round;stroke-linejoin:round;stroke-miterlimit:10;" d="
					M284.337,408.983c5,0.075,9.999,0.151,14.999,0.226"/>
				<path style="fill:none;stroke:#FFFFFF;stroke-width:0.8;stroke-linecap:round;stroke-linejoin:round;stroke-miterlimit:10;" d="
					M283.632,411.638c4.941,0.028,9.883,0.055,14.824,0.083"/>
				<path style="fill:none;stroke:#FFFFFF;stroke-width:0.8;stroke-linecap:round;stroke-linejoin:round;stroke-miterlimit:10;" d="
					M283.279,414.594c4.942,0.065,9.884,0.129,14.826,0.194"/>
				<path style="fill:none;stroke:#FFFFFF;stroke-width:0.8;stroke-linecap:round;stroke-linejoin:round;stroke-miterlimit:10;" d="
					M266.664,408.802c2.059-0.824,4.117-1.647,6.176-2.471"/>
				<path style="fill:none;stroke:#FFFFFF;stroke-width:0.8;stroke-linecap:round;stroke-linejoin:round;stroke-miterlimit:10;" d="
					M266.721,410.737c2.232-0.659,4.464-1.318,6.695-1.977"/>
				<path style="fill:none;stroke:#FFFFFF;stroke-width:0.8;stroke-linecap:round;stroke-linejoin:round;stroke-miterlimit:10;" d="
					M267.055,413.143c1.998-0.594,3.996-1.188,5.995-1.782"/>
			</g>
			<g>
				<path style="fill:#4D57FF;" d="M375.406,300.122l-93.894-0.993c-6.195,4.001-12.391,8.002-18.587,12.003
					c-7.813,5.045-12.761,14.476-13.639,23.734c-0.708,7.462,1.112,14.907,2.917,22.183c3.798,15.302,7.595,30.605,11.393,45.908
					c4.161-1.24,8.437-2.852,12.598-4.091c-0.158,0.788-0.394,1.689-0.552,2.477c16.255-0.25,32.509-0.5,48.764-0.751
					c2.734-17.727,4.999-35.678,7.733-53.406c6.278-0.215,12.101-0.804,18.378-1.02c9.888-0.339,18.089-8.627,22.81-17.322
					C378.05,320.148,378.827,309.406,375.406,300.122z"/>
				<path style="fill:none;stroke:#060305;stroke-width:0.8;stroke-linecap:round;stroke-linejoin:round;stroke-miterlimit:10;" d="
					M275.94,400.059c3.556-23.207,8.051-46.271,13.471-69.115c1.66-6.999,5.044-13.174,10.39-17.987
					c5.346-4.813,12.173-7.959,19.305-8.894"/>
				<path style="fill:none;stroke:#060305;stroke-width:0.8;stroke-linecap:round;stroke-linejoin:round;stroke-miterlimit:10;" d="
					M277.641,391.228c15.823,0.359,31.647,0.719,47.47,1.078"/>
				<path style="fill:none;stroke:#060305;stroke-width:0.8;stroke-linecap:round;stroke-linejoin:round;stroke-miterlimit:10;" d="
					M261.052,393.01c5.522-1.962,11.044-3.924,16.566-5.885"/>
				<path style="fill:none;stroke:#060305;stroke-width:0.8;stroke-linecap:round;stroke-linejoin:round;stroke-miterlimit:10;" d="
					M318.538,391.866c2.568-15.572,5.137-31.144,7.705-46.716c0.537,0.785,1.693,0.426,2.275-0.327
					c0.582-0.752,0.593-1.797,0.445-2.737c-0.148-0.939-0.429-1.877-0.337-2.823c0.092-0.947,0.695-1.938,1.635-2.083
					c0.876-0.135,1.692,0.498,2.217,1.212c0.526,0.714,0.896,1.553,1.546,2.155c1.21,1.121,3.314,1.073,4.471-0.102
					c1.157-1.175,1.173-3.28,0.033-4.472c4.736-0.202,9.511-0.675,14.117-1.794c4.606-1.119,9.091-3.225,12.305-6.708
					c3.266-3.539,5.007-8.27,5.72-13.032c0.713-4.763,0.473-9.61,0.232-14.42"/>
				<path style="fill:none;stroke:#060305;stroke-width:0.8;stroke-linecap:round;stroke-linejoin:round;stroke-miterlimit:10;" d="
					M281.678,330.9c2.312,1.145,4.624,2.289,6.936,3.434c-1.486,0.098-2.972,0.197-4.458,0.296"/>
			</g>
			<g>
				<path style="fill:#FFCAB5;" d="M389.461,266.171c-1.806,0.075-3.651-0.397-5.326,0.28c-5.725,2.316-11.272,4.631-16.996,6.947
					c-0.438-0.635-0.359-1.557,0.259-2.018c2.962-2.207,6.12-4.21,9.082-6.417c-6.638,2.6-13.219,5.192-19.857,7.792
					c-0.25-1.018-0.049-2.255,0.791-2.883c2.959-2.211,6.411-4.714,9.37-6.925c-5.407,2.364-10.959,4.206-16.366,6.571
					c-0.508-0.828-0.278-2.165,0.53-2.704c3.258-2.177,6.516-4.353,9.774-6.53c-3.757,1.76-7.372,3.595-11.13,5.355
					c-0.568-0.903-0.58-2.059,0.22-2.765c5.251-4.632,10.519-9.544,15.769-14.176c-2.683-0.176-5.366-0.351-8.049-0.527
					c-0.78-0.051-1.582-0.107-2.291-0.439c-0.708-0.331-1.192-1.158-1.206-1.941c5.584-2.237,11.167-4.474,16.751-6.711
					c6.429-2.576,13.946-2.024,20.295,0.743c5.372,2.342,9.124,7.971,8.665,13.813C399.288,259.48,395.316,265.928,389.461,266.171z
					"/>
				<path style="fill:none;stroke:#060305;stroke-width:0.8;stroke-linecap:round;stroke-linejoin:round;stroke-miterlimit:10;" d="
					M364.667,249.201c1.115-1.062,2.23-2.123,3.345-3.185"/>
				<path style="fill:none;stroke:#060305;stroke-width:0.8;stroke-linecap:round;stroke-linejoin:round;stroke-miterlimit:10;" d="
					M356.901,262.455c4.274-2.621,8.548-5.241,12.823-7.862"/>
				<path style="fill:none;stroke:#060305;stroke-width:0.8;stroke-linecap:round;stroke-linejoin:round;stroke-miterlimit:10;" d="
					M364.662,264.052c2.878-1.363,5.755-2.725,8.633-4.088"/>
			</g>
		</g>
		<g>
			<g>
				<g>
					<polygon style="fill:#97B8FF;" points="449.574,301.754 439.603,301.754 357.486,432.35 362.778,432.35 					"/>
					<polygon style="fill:#97B8FF;" points="367.966,301.754 377.936,301.754 460.054,432.35 454.762,432.35 					"/>
				</g>
				<g>
					<polygon style="fill:#97B8FF;" points="257.437,301.754 247.466,301.754 165.348,432.35 170.641,432.35 					"/>
					<polygon style="fill:#97B8FF;" points="175.829,301.754 185.799,301.754 267.917,432.35 262.625,432.35 					"/>
				</g>
				<rect x="156.161" y="294.682" style="fill:#ADCAFF;" width="314.293" height="7.94"/>
			</g>
			<g>
				
					<line style="fill:none;stroke:#060305;stroke-width:0.8;stroke-linecap:round;stroke-linejoin:round;stroke-miterlimit:10;" x1="91.466" y1="432.118" x2="216.044" y2="432.118"/>
				
					<line style="fill:none;stroke:#060305;stroke-width:0.8;stroke-linecap:round;stroke-linejoin:round;stroke-miterlimit:10;" x1="219.927" y1="432.118" x2="224.515" y2="432.118"/>
				
					<line style="fill:none;stroke:#060305;stroke-width:0.8;stroke-linecap:round;stroke-linejoin:round;stroke-miterlimit:10;" x1="86.544" y1="432.118" x2="69.927" y2="432.118"/>
				
					<line style="fill:none;stroke:#060305;stroke-width:0.8;stroke-linecap:round;stroke-linejoin:round;stroke-miterlimit:10;" x1="244.456" y1="432.118" x2="324.961" y2="432.118"/>
				
					<line style="fill:none;stroke:#060305;stroke-width:0.8;stroke-linecap:round;stroke-linejoin:round;stroke-miterlimit:10;" x1="331.103" y1="432.118" x2="413.863" y2="432.118"/>
				
					<line style="fill:none;stroke:#060305;stroke-width:0.8;stroke-linecap:round;stroke-linejoin:round;stroke-miterlimit:10;" x1="418.986" y1="432.118" x2="467.339" y2="432.118"/>
				
					<line style="fill:none;stroke:#060305;stroke-width:0.8;stroke-linecap:round;stroke-linejoin:round;stroke-miterlimit:10;" x1="470.454" y1="432.118" x2="474.221" y2="432.118"/>
			</g>
		</g>
	</g>
</g>
</svg>
